<svg xmlns="http://www.w3.org/2000/svg" version="1.1" xmlns:xlink="http://www.w3.org/1999/xlink" xmlns:svgjs="http://svgjs.dev/svgjs" width="500" height="500" viewBox="0 0 1000 1000"><g transform="matrix(1,0,0,1,-0.14221556886212738,-0.14221556886229791)"><svg viewBox="0 0 334 334" data-background-color="#454545" preserveAspectRatio="xMidYMid meet" height="1000" width="1000" xmlns="http://www.w3.org/2000/svg" xmlns:xlink="http://www.w3.org/1999/xlink"><g id="tight-bounds" transform="matrix(1,0,0,1,0.04749999999998522,0.04750000000001364)"><svg viewBox="0 0 333.90454557049503 333.90454557049503" height="333.90454557049503" width="333.90454557049503"><g><svg></svg></g><g><svg viewBox="0 0 333.90454557049503 333.90454557049503" height="333.90454557049503" width="333.90454557049503"><g><path d="M0 166.952c0-92.205 74.747-166.952 166.952-166.952 92.205 0 166.952 74.747 166.953 166.952 0 92.205-74.747 166.952-166.953 166.953-92.205 0-166.952-74.747-166.952-166.953zM166.952 316.63c82.665 0 149.677-67.013 149.678-149.678 0-82.665-67.013-149.677-149.678-149.677-82.665 0-149.677 67.013-149.677 149.677 0 82.665 67.013 149.677 149.677 149.678z" data-fill-palette-color="tertiary" fill="#fbeaab" stroke="transparent"></path><ellipse rx="160.27418187383762" ry="160.27418187383762" cx="166.95227278524752" cy="166.95227278524752" fill="#fbeaab" stroke="transparent" stroke-width="0" fill-opacity="1" data-fill-palette-color="tertiary"></ellipse></g><g transform="matrix(1,0,0,1,110.72233708795,71.17305217166896)"><svg viewBox="0 0 112.45987139459505 191.55844122715712" height="191.55844122715712" width="112.45987139459505"><g><svg viewBox="0 0 112.45987139459505 191.55844122715712" height="191.55844122715712" width="112.45987139459505"><g><svg viewBox="0 0 112.45987139459505 191.55844122715712" height="191.55844122715712" width="112.45987139459505"><g><svg viewBox="0 0 112.45987139459505 191.55844122715712" height="191.55844122715712" width="112.45987139459505"><g><svg viewBox="0 0 112.45987139459505 191.55844122715712" height="191.55844122715712" width="112.45987139459505"><g><svg viewBox="0 0 112.45987139459505 191.55844122715712" height="191.55844122715712" width="112.45987139459505"><g transform="matrix(1,0,0,1,0,0)"><svg width="112.45987139459505" viewBox="1.350000023841858 -35 20.899999618530273 35.599998474121094" height="191.55844122715712" data-palette-color="#454545"><path d="M12 0.6L12 0.6Q7.1 0.6 4.23-2.15 1.35-4.9 1.35-9.9L1.35-9.9 6.65-9.9Q6.65-7.4 7.88-5.75 9.1-4.1 11.9-4.1L11.9-4.1Q14.65-4.1 15.8-5.68 16.95-7.25 16.95-9.7L16.95-9.7 16.95-35 22.25-35 22.25-9.7Q22.25-4.75 19.5-2.08 16.75 0.6 12 0.6Z" opacity="1" transform="matrix(1,0,0,1,0,0)" fill="#454545" class="undefined-text-0" data-fill-palette-color="quaternary" id="text-0"></path></svg></g></svg></g></svg></g></svg></g><g></g></svg></g></svg></g></svg></g></svg></g><defs></defs></svg><rect width="333.90454557049503" height="333.90454557049503" fill="none" stroke="none" visibility="hidden"></rect></g></svg></g></svg>